<svg width="108" height="80" viewBox="0 0 108 80" fill="none" xmlns="http://www.w3.org/2000/svg">
<rect x="0.207764" y="0.459778" width="106.026" height="78.3333" rx="4" fill="#F3603C"/>
<path fill-rule="evenodd" clip-rule="evenodd" d="M61.9301 52.8994C61.33 53.5061 60.6012 53.8095 59.7439 53.8095C58.8865 53.8095 58.1561 53.5061 57.5527 52.8994C56.9492 52.2927 56.6475 51.5574 56.6475 50.6935C56.6475 49.8428 56.9509 49.1141 57.5576 48.5074C58.1644 47.9007 58.8931 47.5974 59.7439 47.5974C60.6012 47.5974 61.33 47.9007 61.9301 48.5074C62.5302 49.1141 62.8303 49.8428 62.8303 50.6935C62.8303 51.5508 62.5302 52.2861 61.9301 52.8994ZM35.5153 61.9109V47.8051H33.3587L29.926 50.8023V53.1764L33.24 50.1989V61.9109H35.5153ZM23.2513 59.8732V55.9659H27.1489V54.1854H23.2513V50.2781H21.4706V54.1854H17.5631V55.9659H21.4706V59.8732H23.2513ZM42.9369 61.7032C42.6632 61.9736 42.3351 62.1088 41.9526 62.1088C41.5767 62.1088 41.2503 61.9719 40.9733 61.6983C40.6963 61.4246 40.5578 61.0998 40.5578 60.7239C40.5578 60.3414 40.6963 60.0133 40.9733 59.7397C41.2503 59.466 41.5767 59.3292 41.9526 59.3292C42.3351 59.3292 42.6632 59.466 42.9369 59.7397C43.2106 60.0133 43.3475 60.3414 43.3475 60.7239C43.3475 61.1064 43.2106 61.4328 42.9369 61.7032ZM50.5366 62.0989C51.9875 62.0989 53.1598 61.6554 54.0534 60.7684C54.947 59.8814 55.3938 58.7159 55.3938 57.2716C55.3938 55.834 54.9553 54.7278 54.0781 53.9529C53.201 53.178 51.8787 52.7906 50.1113 52.7906H48.568L48.8747 49.8725H54.7508V47.815H46.8863L46.1543 54.7294H49.7848C51.9941 54.7294 53.0988 55.6032 53.0988 57.3508C53.0988 58.1421 52.8663 58.7801 52.4014 59.2649C51.9364 59.7496 51.2983 59.9919 50.4872 59.9919C49.7815 59.9919 49.1797 59.7875 48.6818 59.3786C48.1839 58.9697 47.9349 58.3564 47.9349 57.5387C47.9349 57.3739 47.958 57.1364 48.0042 56.8265L45.719 56.965C45.686 57.2486 45.6695 57.486 45.6695 57.6772C45.6695 58.5939 45.8971 59.3934 46.3521 60.076C46.8072 60.7585 47.3974 61.2663 48.1229 61.5993C48.8483 61.9324 49.6529 62.0989 50.5366 62.0989ZM60.832 61.9208L68.2909 47.7853H66.3125L58.8733 61.9208H60.832ZM58.6557 51.7866C58.9591 52.0866 59.3218 52.2367 59.7439 52.2367C60.1791 52.2367 60.5435 52.0866 60.837 51.7866C61.1305 51.4865 61.2772 51.1222 61.2772 50.6935C61.2772 50.2715 61.1288 49.9121 60.832 49.6153C60.5353 49.3185 60.1725 49.1702 59.7439 49.1702C59.3218 49.1702 58.9591 49.3169 58.6557 49.6104C58.3523 49.9038 58.2006 50.2649 58.2006 50.6935C58.2006 51.1222 58.3523 51.4865 58.6557 51.7866ZM67.5292 62.0791C68.38 62.0791 69.1038 61.7757 69.7006 61.169C70.2975 60.5623 70.5959 59.8336 70.5959 58.9829C70.5959 58.1256 70.2958 57.3953 69.6957 56.7919C69.0955 56.1885 68.3734 55.8868 67.5292 55.8868C66.6719 55.8868 65.9398 56.1885 65.3331 56.7919C64.7264 57.3953 64.423 58.1256 64.423 58.9829C64.423 59.8402 64.7247 60.5706 65.3282 61.174C65.9316 61.7774 66.6653 62.0791 67.5292 62.0791ZM66.4312 60.0661C66.7279 60.3662 67.094 60.5162 67.5292 60.5162C67.9513 60.5162 68.314 60.3662 68.6174 60.0661C68.9208 59.766 69.0724 59.405 69.0724 58.9829C69.0724 58.5609 68.9191 58.1982 68.6124 57.8948C68.3058 57.5915 67.9447 57.4398 67.5292 57.4398C67.094 57.4398 66.7279 57.5882 66.4312 57.8849C66.1344 58.1817 65.986 58.5477 65.986 58.9829C65.986 59.405 66.1344 59.766 66.4312 60.0661Z" fill="white"/>
</svg>
