<svg width="108" height="80" viewBox="0 0 108 80" fill="none" xmlns="http://www.w3.org/2000/svg">
<rect x="0.766235" y="0.459778" width="106.026" height="78.3333" rx="4" fill="#FAFAFA"/>
<path fill-rule="evenodd" clip-rule="evenodd" d="M55.6951 61.9109V59.8534H49.1858L53.3308 55.5603C53.9969 54.8679 54.4849 54.2183 54.7949 53.6116C55.1048 53.0049 55.2598 52.3422 55.2598 51.6234C55.2598 50.3704 54.841 49.3845 54.0035 48.6657C53.1659 47.9469 52.0876 47.5875 50.7686 47.5875C49.3639 47.5875 48.2494 47.9798 47.425 48.7646C46.6006 49.5494 46.1884 50.6737 46.1884 52.1377V52.9291L48.4538 53.1467V52.1081C48.4538 51.1914 48.6615 50.5237 49.077 50.105C49.4925 49.6862 50.0597 49.4768 50.7785 49.4768C51.4644 49.4768 52.0085 49.6664 52.4108 50.0456C52.8131 50.4248 53.0142 50.954 53.0142 51.6333C53.0142 52.5103 52.5427 53.4336 51.5996 54.403L45.9609 60.1897V61.9109H55.6951ZM22.8699 62.0989C23.8064 62.0989 24.6473 61.9307 25.3925 61.5944C26.1377 61.2515 26.7296 60.7503 27.1682 60.0908C27.6068 59.4314 27.8261 58.6697 27.8261 57.8058C27.8261 56.9551 27.6084 56.2132 27.1732 55.5801C26.7379 54.947 26.1476 54.4656 25.4024 54.1359C25.93 53.826 26.3455 53.422 26.6489 52.9241C26.9522 52.4263 27.1039 51.8707 27.1039 51.2574C27.1039 50.189 26.7033 49.3136 25.902 48.6311C25.1007 47.9485 24.09 47.6072 22.8699 47.6072C21.6301 47.6072 20.6079 47.9469 19.8033 48.6261C18.9987 49.3054 18.5964 50.1824 18.5964 51.2574C18.5964 51.8707 18.7514 52.4263 19.0613 52.9241C19.3713 53.422 19.7967 53.826 20.3375 54.1359C19.5791 54.459 18.9839 54.9371 18.5519 55.5702C18.1199 56.2033 17.9039 56.9485 17.9039 57.8058C17.9039 58.6697 18.1232 59.4314 18.5618 60.0908C19.0003 60.7503 19.5939 61.2498 20.3424 61.5895C21.0909 61.9291 21.9335 62.0989 22.8699 62.0989ZM22.8699 53.4336C22.2632 53.4336 21.7521 53.2374 21.3366 52.845C20.9211 52.4526 20.7134 51.9663 20.7134 51.386C20.7134 50.8188 20.9211 50.3424 21.3366 49.9566C21.7521 49.5708 22.2632 49.3779 22.8699 49.3779C23.4701 49.3779 23.9779 49.5708 24.3934 49.9566C24.8089 50.3424 25.0166 50.8188 25.0166 51.386C25.0166 51.9597 24.8072 52.4444 24.3884 52.8401C23.9697 53.2357 23.4635 53.4336 22.8699 53.4336ZM20.9508 59.3588C21.4586 59.8139 22.0983 60.0414 22.8699 60.0414C23.6284 60.0414 24.2615 59.8122 24.7693 59.3539C25.2771 58.8956 25.531 58.2905 25.531 57.5387C25.531 56.7935 25.2771 56.1967 24.7693 55.7483C24.2615 55.2999 23.6284 55.0756 22.8699 55.0756C22.0983 55.0756 21.4586 55.2999 20.9508 55.7483C20.443 56.1967 20.1891 56.7935 20.1891 57.5387C20.1891 58.2971 20.443 58.9038 20.9508 59.3588ZM33.9468 62.0989C34.8833 62.0989 35.7242 61.9307 36.4694 61.5944C37.2147 61.2515 37.8066 60.7503 38.2451 60.0908C38.6837 59.4314 38.903 58.6697 38.903 57.8058C38.903 56.9551 38.6853 56.2132 38.2501 55.5801C37.8148 54.947 37.2245 54.4656 36.4793 54.1359C37.0069 53.826 37.4224 53.422 37.7258 52.9241C38.0291 52.4263 38.1808 51.8707 38.1808 51.2574C38.1808 50.189 37.7802 49.3136 36.9789 48.6311C36.1776 47.9485 35.1669 47.6072 33.9468 47.6072C32.707 47.6072 31.6848 47.9469 30.8802 48.6261C30.0756 49.3054 29.6733 50.1824 29.6733 51.2574C29.6733 51.8707 29.8283 52.4263 30.1383 52.9241C30.4482 53.422 30.8736 53.826 31.4144 54.1359C30.656 54.459 30.0608 54.9371 29.6288 55.5702C29.1968 56.2033 28.9808 56.9485 28.9808 57.8058C28.9808 58.6697 29.2001 59.4314 29.6387 60.0908C30.0773 60.7503 30.6708 61.2498 31.4193 61.5895C32.1679 61.9291 33.0104 62.0989 33.9468 62.0989ZM32.4135 52.845C32.829 53.2374 33.3401 53.4336 33.9468 53.4336C34.5404 53.4336 35.0466 53.2357 35.4653 52.8401C35.8841 52.4444 36.0935 51.9597 36.0935 51.386C36.0935 50.8188 35.8858 50.3424 35.4703 49.9566C35.0548 49.5708 34.547 49.3779 33.9468 49.3779C33.3401 49.3779 32.829 49.5708 32.4135 49.9566C31.998 50.3424 31.7903 50.8188 31.7903 51.386C31.7903 51.9663 31.998 52.4526 32.4135 52.845ZM33.9468 60.0414C33.1752 60.0414 32.5355 59.8139 32.0277 59.3588C31.5199 58.9038 31.266 58.2971 31.266 57.5387C31.266 56.7935 31.5199 56.1967 32.0277 55.7483C32.5355 55.2999 33.1752 55.0756 33.9468 55.0756C34.7053 55.0756 35.3384 55.2999 35.8462 55.7483C36.354 56.1967 36.6079 56.7935 36.6079 57.5387C36.6079 58.2905 36.354 58.8956 35.8462 59.3539C35.3384 59.8122 34.7053 60.0414 33.9468 60.0414ZM43.3668 61.7032C43.0931 61.9736 42.765 62.1088 42.3825 62.1088C42.0066 62.1088 41.6801 61.9719 41.4031 61.6983C41.1261 61.4246 40.9876 61.0998 40.9876 60.7239C40.9876 60.3414 41.1261 60.0133 41.4031 59.7397C41.6801 59.466 42.0066 59.3292 42.3825 59.3292C42.765 59.3292 43.0931 59.466 43.3668 59.7397C43.6405 60.0133 43.7773 60.3414 43.7773 60.7239C43.7773 61.1064 43.6405 61.4328 43.3668 61.7032ZM65.3969 59.1511V61.9109H63.1217V59.1511H56.4937V57.0936L61.9247 47.8051H65.3969V57.1035H67.3359V59.1511H65.3969ZM63.1217 57.1035H58.7096L63.1217 49.2691V57.1035ZM73.4369 52.8994C72.8367 53.5061 72.108 53.8095 71.2506 53.8095C70.3933 53.8095 69.6629 53.5061 69.0594 52.8994C68.456 52.2927 68.1543 51.5574 68.1543 50.6935C68.1543 49.8428 68.4577 49.1141 69.0644 48.5074C69.6711 47.9007 70.3999 47.5974 71.2506 47.5974C72.108 47.5974 72.8367 47.9007 73.4369 48.5074C74.037 49.1141 74.3371 49.8428 74.3371 50.6935C74.3371 51.5508 74.037 52.2861 73.4369 52.8994ZM72.3388 61.9208L79.7977 47.7853H77.8192L70.3801 61.9208H72.3388ZM70.1625 51.7866C70.4658 52.0866 70.8285 52.2367 71.2506 52.2367C71.6859 52.2367 72.0503 52.0866 72.3437 51.7866C72.6372 51.4865 72.784 51.1222 72.784 50.6935C72.784 50.2715 72.6356 49.9121 72.3388 49.6153C72.042 49.3185 71.6793 49.1702 71.2506 49.1702C70.8285 49.1702 70.4658 49.3169 70.1625 49.6104C69.8591 49.9038 69.7074 50.2649 69.7074 50.6935C69.7074 51.1222 69.8591 51.4865 70.1625 51.7866ZM79.036 62.0791C79.8867 62.0791 80.6105 61.7758 81.2074 61.169C81.8042 60.5623 82.1026 59.8336 82.1026 58.9829C82.1026 58.1256 81.8026 57.3953 81.2024 56.7919C80.6023 56.1885 79.8801 55.8868 79.036 55.8868C78.1786 55.8868 77.4466 56.1885 76.8399 56.7919C76.2331 57.3953 75.9298 58.1256 75.9298 58.9829C75.9298 59.8402 76.2315 60.5706 76.8349 61.174C77.4384 61.7774 78.172 62.0791 79.036 62.0791ZM77.9379 60.0661C78.2347 60.3662 78.6007 60.5162 79.036 60.5162C79.4581 60.5162 79.8208 60.3662 80.1242 60.0661C80.4275 59.766 80.5792 59.405 80.5792 58.9829C80.5792 58.5609 80.4259 58.1982 80.1192 57.8948C79.8125 57.5915 79.4515 57.4398 79.036 57.4398C78.6007 57.4398 78.2347 57.5882 77.9379 57.8849C77.6411 58.1817 77.4928 58.5477 77.4928 58.9829C77.4928 59.405 77.6411 59.766 77.9379 60.0661Z" fill="#1E272E"/>
</svg>
