<svg width="229" height="110" viewBox="0 0 229 110" fill="none" xmlns="http://www.w3.org/2000/svg">
<rect x="0.207764" y="0.206909" width="227.584" height="108.046" rx="4" fill="#FAFAFA"/>
<path fill-rule="evenodd" clip-rule="evenodd" d="M135.631 65.3932C134.351 66.6875 132.796 67.3347 130.967 67.3347C129.138 67.3347 127.58 66.6875 126.293 65.3932C125.006 64.0989 124.362 62.5303 124.362 60.6873C124.362 58.8725 125.009 57.3179 126.304 56.0236C127.598 54.7293 129.153 54.0822 130.967 54.0822C132.796 54.0822 134.351 54.7293 135.631 56.0236C136.912 57.3179 137.552 58.8725 137.552 60.6873C137.552 62.5162 136.912 64.0848 135.631 65.3932ZM34.3749 83.9425C32.7851 84.66 30.9913 85.0188 28.9934 85.0188C26.9956 85.0188 25.1983 84.6565 23.6014 83.932C22.0045 83.2074 20.7383 82.1418 19.8027 80.7349C18.8671 79.3281 18.3993 77.7031 18.3993 75.8602C18.3993 74.0313 18.8601 72.4415 19.7816 71.091C20.7031 69.7404 21.9729 68.7204 23.5909 68.0311C22.4372 67.3698 21.5297 66.5081 20.8684 65.446C20.2072 64.3838 19.8766 63.1985 19.8766 61.8902C19.8766 59.597 20.7348 57.7259 22.4512 56.2768C24.1677 54.8278 26.3484 54.1033 28.9934 54.1033C31.5963 54.1033 33.7524 54.8313 35.4618 56.2874C37.1712 57.7435 38.0259 59.6111 38.0259 61.8902C38.0259 63.1985 37.7023 64.3838 37.0551 65.446C36.4079 66.5081 35.5216 67.3698 34.396 68.0311C35.9859 68.7345 37.2451 69.7615 38.1736 71.1121C39.1022 72.4626 39.5665 74.0453 39.5665 75.8602C39.5665 77.7031 39.0987 79.3281 38.1631 80.7349C37.2275 82.1418 35.9648 83.211 34.3749 83.9425ZM25.7223 65.2772C26.6087 66.1142 27.6991 66.5328 28.9934 66.5328C30.2597 66.5328 31.3395 66.1107 32.2329 65.2666C33.1263 64.4225 33.573 63.3885 33.573 62.1645C33.573 60.9546 33.1298 59.9382 32.2434 59.1152C31.3571 58.2921 30.2738 57.8806 28.9934 57.8806C27.6991 57.8806 26.6087 58.2921 25.7223 59.1152C24.836 59.9382 24.3928 60.9546 24.3928 62.1645C24.3928 63.4025 24.836 64.4401 25.7223 65.2772ZM28.9934 80.6294C27.3473 80.6294 25.9826 80.144 24.8993 79.1733C23.816 78.2026 23.2743 76.9083 23.2743 75.2904C23.2743 73.7007 23.816 72.4275 24.8993 71.4708C25.9826 70.5141 27.3473 70.0358 28.9934 70.0358C30.6114 70.0358 31.9621 70.5141 33.0454 71.4708C34.1287 72.4275 34.6704 73.7007 34.6704 75.2904C34.6704 76.8942 34.1287 78.185 33.0454 79.1627C31.9621 80.1405 30.6114 80.6294 28.9934 80.6294ZM60.4594 71.7451L50.7305 84.6178H45.0957L53.1152 74.2986C52.5102 74.4252 51.8771 74.4885 51.2159 74.4885C49.5416 74.4885 47.9799 74.0946 46.5308 73.3067C45.0816 72.5189 43.8963 71.3618 42.9748 69.8353C42.0532 68.3089 41.5854 66.5609 41.5714 64.5913C41.5573 62.5795 42.0392 60.7682 43.017 59.1574C43.9948 57.5465 45.3032 56.3085 46.9423 55.4433C48.5814 54.5781 50.3787 54.1455 52.3344 54.1455C54.3322 54.1455 56.1506 54.5816 57.7897 55.4538C59.4288 56.3261 60.7267 57.5536 61.6834 59.1363C62.6401 60.719 63.1184 62.4951 63.1184 64.4647C63.1184 66.9267 62.2321 69.3535 60.4594 71.7451ZM52.461 70.8588C50.6601 70.8588 49.1864 70.2926 48.0397 69.1601C46.8931 68.0275 46.3127 66.5398 46.2986 64.6968C46.2846 62.882 46.8614 61.4083 48.0292 60.2758C49.1969 59.1433 50.6742 58.577 52.461 58.577C54.2759 58.577 55.7391 59.1257 56.8506 60.223C57.9621 61.3204 58.5178 62.7976 58.5178 64.6546C58.5178 66.4132 57.9515 67.8869 56.8189 69.0756C55.6864 70.2644 54.2337 70.8588 52.461 70.8588ZM72.2248 84.1746C71.6409 84.7515 70.941 85.0399 70.1249 85.0399C69.323 85.0399 68.6266 84.7479 68.0357 84.1641C67.4447 83.5803 67.1493 82.8874 67.1493 82.0855C67.1493 81.2695 67.4447 80.5696 68.0357 79.9858C68.6266 79.4019 69.323 79.11 70.1249 79.11C70.941 79.11 71.6409 79.4019 72.2248 79.9858C72.8087 80.5696 73.1006 81.2695 73.1006 82.0855C73.1006 82.9014 72.8087 83.5978 72.2248 84.1746ZM84.349 84.6178L98.5097 58.3871V54.5253H77.5957V58.8936H93.0438L78.8197 84.6178H84.349ZM118.727 78.7301V84.6178H113.873V78.7301H99.7337V74.3408L111.32 54.5253H118.727V74.3619H122.864V78.7301H118.727ZM113.873 74.3619H104.461L113.873 57.6485V74.3619ZM133.289 84.6389L149.201 54.4831H144.98L129.11 84.6389H133.289ZM128.646 63.0192C129.293 63.6593 130.067 63.9793 130.967 63.9793C131.896 63.9793 132.673 63.6593 133.299 63.0192C133.926 62.379 134.239 61.6018 134.239 60.6873C134.239 59.7869 133.922 59.0202 133.289 58.3871C132.656 57.754 131.882 57.4375 130.967 57.4375C130.067 57.4375 129.293 57.7505 128.646 58.3766C127.999 59.0026 127.675 59.7729 127.675 60.6873C127.675 61.6018 127.999 62.379 128.646 63.0192ZM147.576 84.9766C149.391 84.9766 150.935 84.3294 152.209 83.0351C153.482 81.7408 154.118 80.1862 154.118 78.3714C154.118 76.5425 153.478 74.9844 152.198 73.6971C150.918 72.4099 149.377 71.7662 147.576 71.7662C145.747 71.7662 144.186 72.4099 142.891 73.6971C141.597 74.9844 140.95 76.5425 140.95 78.3714C140.95 80.2003 141.593 81.7584 142.881 83.0457C144.168 84.3329 145.733 84.9766 147.576 84.9766ZM145.234 80.6821C145.867 81.3223 146.648 81.6423 147.576 81.6423C148.477 81.6423 149.25 81.3223 149.898 80.6821C150.545 80.042 150.868 79.2718 150.868 78.3714C150.868 77.471 150.541 76.6972 149.887 76.0501C149.233 75.4029 148.463 75.0794 147.576 75.0794C146.648 75.0794 145.867 75.3959 145.234 76.029C144.601 76.6621 144.284 77.4429 144.284 78.3714C144.284 79.2718 144.601 80.042 145.234 80.6821Z" fill="#343A40"/>
</svg>
